<svg width="37" height="37" viewBox="0 0 37 37" fill="none" xmlns="http://www.w3.org/2000/svg">
<g id="Group 3">
<circle id="Ellipse 3" cx="18.5" cy="18.5" r="18.5" fill="#52ACA3" fill-opacity="0.22"/>
<path id="Vector" d="M19 18C21.5 18 23.625 17.6083 25.375 16.825C27.125 16.0417 28 15.1 28 14C28 12.9 27.125 11.9583 25.375 11.175C23.625 10.3917 21.5 10 19 10C16.5 10 14.375 10.3917 12.625 11.175C10.875 11.9583 10 12.9 10 14C10 15.1 10.875 16.0417 12.625 16.825C14.375 17.6083 16.5 18 19 18ZM19 20.5C19.6833 20.5 20.5377 20.429 21.563 20.287C22.5883 20.145 23.5757 19.916 24.525 19.6C25.475 19.2833 26.2917 18.871 26.975 18.363C27.6583 17.855 28 17.234 28 16.5V19C28 19.7333 27.6583 20.3543 26.975 20.863C26.2917 21.3717 25.475 21.784 24.525 22.1C23.575 22.4167 22.5877 22.646 21.563 22.788C20.5383 22.93 19.684 23.0007 19 23C18.3167 23 17.4623 22.929 16.437 22.787C15.4117 22.645 14.4247 22.416 13.476 22.1C12.526 21.7833 11.7093 21.371 11.026 20.863C10.3427 20.355 10.0007 19.734 10 19V16.5C10 17.2333 10.3417 17.8543 11.025 18.363C11.7083 18.8717 12.525 19.284 13.475 19.6C14.425 19.9167 15.4127 20.146 16.438 20.288C17.4633 20.43 18.3173 20.5007 19 20.5ZM19 25.5C19.6833 25.5 20.5377 25.429 21.563 25.287C22.5883 25.145 23.5757 24.916 24.525 24.6C25.475 24.2833 26.2917 23.8707 26.975 23.362C27.6583 22.8533 28 22.2327 28 21.5V24C28 24.7333 27.6583 25.3543 26.975 25.863C26.2917 26.3717 25.475 26.784 24.525 27.1C23.575 27.4167 22.5877 27.646 21.563 27.788C20.5383 27.93 19.684 28.0007 19 28C18.3167 28 17.4623 27.929 16.437 27.787C15.4117 27.645 14.4247 27.416 13.476 27.1C12.526 26.7833 11.7093 26.3707 11.026 25.862C10.3427 25.3533 10.0007 24.7327 10 24V21.5C10 22.2333 10.3417 22.8543 11.025 23.363C11.7083 23.8717 12.525 24.284 13.475 24.6C14.425 24.9167 15.4127 25.146 16.438 25.288C17.4633 25.43 18.3173 25.5007 19 25.5Z" fill="#52ACA3"/>
</g>
</svg>
